<?xml version="1.0" standalone="no"?>
<svg xmlns="http://www.w3.org/2000/svg" width="300" height="300" xmlns:xlink="http://www.w3.org/1999/xlink" viewBox="0 0 300 300"><defs><clipPath id="clip-path-background-color-10"><rect x="0" y="0" width="300" height="300"/></clipPath><clipPath id="clip-path-dot-color-10"><rect x="114" y="34" width="8" height="8" transform="rotate(0,118,38)"/><rect x="122" y="34" width="8" height="8" transform="rotate(0,126,38)"/><rect x="130" y="34" width="8" height="8" transform="rotate(0,134,38)"/><rect x="138" y="34" width="8" height="8" transform="rotate(0,142,38)"/><rect x="186" y="34" width="8" height="8" transform="rotate(0,190,38)"/><rect x="98" y="42" width="8" height="8" transform="rotate(0,102,46)"/><rect x="106" y="42" width="8" height="8" transform="rotate(0,110,46)"/><rect x="114" y="42" width="8" height="8" transform="rotate(0,118,46)"/><rect x="122" y="42" width="8" height="8" transform="rotate(0,126,46)"/><rect x="130" y="42" width="8" height="8" transform="rotate(0,134,46)"/><rect x="146" y="42" width="8" height="8" transform="rotate(0,150,46)"/><rect x="186" y="42" width="8" height="8" transform="rotate(0,190,46)"/><rect x="194" y="42" width="8" height="8" transform="rotate(0,198,46)"/><rect x="106" y="50" width="8" height="8" transform="rotate(0,110,54)"/><rect x="122" y="50" width="8" height="8" transform="rotate(0,126,54)"/><rect x="130" y="50" width="8" height="8" transform="rotate(0,134,54)"/><rect x="146" y="50" width="8" height="8" transform="rotate(0,150,54)"/><rect x="154" y="50" width="8" height="8" transform="rotate(0,158,54)"/><rect x="162" y="50" width="8" height="8" transform="rotate(0,166,54)"/><rect x="186" y="50" width="8" height="8" transform="rotate(0,190,54)"/><rect x="194" y="50" width="8" height="8" transform="rotate(0,198,54)"/><rect x="98" y="58" width="8" height="8" transform="rotate(0,102,62)"/><rect x="106" y="58" width="8" height="8" transform="rotate(0,110,62)"/><rect x="114" y="58" width="8" height="8" transform="rotate(0,118,62)"/><rect x="122" y="58" width="8" height="8" transform="rotate(0,126,62)"/><rect x="130" y="58" width="8" height="8" transform="rotate(0,134,62)"/><rect x="138" y="58" width="8" height="8" transform="rotate(0,142,62)"/><rect x="146" y="58" width="8" height="8" transform="rotate(0,150,62)"/><rect x="170" y="58" width="8" height="8" transform="rotate(0,174,62)"/><rect x="194" y="58" width="8" height="8" transform="rotate(0,198,62)"/><rect x="98" y="66" width="8" height="8" transform="rotate(0,102,70)"/><rect x="106" y="66" width="8" height="8" transform="rotate(0,110,70)"/><rect x="114" y="66" width="8" height="8" transform="rotate(0,118,70)"/><rect x="130" y="66" width="8" height="8" transform="rotate(0,134,70)"/><rect x="162" y="66" width="8" height="8" transform="rotate(0,166,70)"/><rect x="170" y="66" width="8" height="8" transform="rotate(0,174,70)"/><rect x="186" y="66" width="8" height="8" transform="rotate(0,190,70)"/><rect x="194" y="66" width="8" height="8" transform="rotate(0,198,70)"/><rect x="122" y="74" width="8" height="8" transform="rotate(0,126,78)"/><rect x="138" y="74" width="8" height="8" transform="rotate(0,142,78)"/><rect x="146" y="74" width="8" height="8" transform="rotate(0,150,78)"/><rect x="154" y="74" width="8" height="8" transform="rotate(0,158,78)"/><rect x="162" y="74" width="8" height="8" transform="rotate(0,166,78)"/><rect x="170" y="74" width="8" height="8" transform="rotate(0,174,78)"/><rect x="178" y="74" width="8" height="8" transform="rotate(0,182,78)"/><rect x="98" y="82" width="8" height="8" transform="rotate(0,102,86)"/><rect x="114" y="82" width="8" height="8" transform="rotate(0,118,86)"/><rect x="130" y="82" width="8" height="8" transform="rotate(0,134,86)"/><rect x="146" y="82" width="8" height="8" transform="rotate(0,150,86)"/><rect x="162" y="82" width="8" height="8" transform="rotate(0,166,86)"/><rect x="178" y="82" width="8" height="8" transform="rotate(0,182,86)"/><rect x="194" y="82" width="8" height="8" transform="rotate(0,198,86)"/><rect x="98" y="90" width="8" height="8" transform="rotate(0,102,94)"/><rect x="114" y="90" width="8" height="8" transform="rotate(0,118,94)"/><rect x="130" y="90" width="8" height="8" transform="rotate(0,134,94)"/><rect x="138" y="90" width="8" height="8" transform="rotate(0,142,94)"/><rect x="162" y="90" width="8" height="8" transform="rotate(0,166,94)"/><rect x="194" y="90" width="8" height="8" transform="rotate(0,198,94)"/><rect x="42" y="98" width="8" height="8" transform="rotate(0,46,102)"/><rect x="58" y="98" width="8" height="8" transform="rotate(0,62,102)"/><rect x="66" y="98" width="8" height="8" transform="rotate(0,70,102)"/><rect x="74" y="98" width="8" height="8" transform="rotate(0,78,102)"/><rect x="82" y="98" width="8" height="8" transform="rotate(0,86,102)"/><rect x="98" y="98" width="8" height="8" transform="rotate(0,102,102)"/><rect x="114" y="98" width="8" height="8" transform="rotate(0,118,102)"/><rect x="130" y="98" width="8" height="8" transform="rotate(0,134,102)"/><rect x="138" y="98" width="8" height="8" transform="rotate(0,142,102)"/><rect x="154" y="98" width="8" height="8" transform="rotate(0,158,102)"/><rect x="162" y="98" width="8" height="8" transform="rotate(0,166,102)"/><rect x="170" y="98" width="8" height="8" transform="rotate(0,174,102)"/><rect x="186" y="98" width="8" height="8" transform="rotate(0,190,102)"/><rect x="194" y="98" width="8" height="8" transform="rotate(0,198,102)"/><rect x="202" y="98" width="8" height="8" transform="rotate(0,206,102)"/><rect x="210" y="98" width="8" height="8" transform="rotate(0,214,102)"/><rect x="226" y="98" width="8" height="8" transform="rotate(0,230,102)"/><rect x="234" y="98" width="8" height="8" transform="rotate(0,238,102)"/><rect x="250" y="98" width="8" height="8" transform="rotate(0,254,102)"/><rect x="42" y="106" width="8" height="8" transform="rotate(0,46,110)"/><rect x="58" y="106" width="8" height="8" transform="rotate(0,62,110)"/><rect x="74" y="106" width="8" height="8" transform="rotate(0,78,110)"/><rect x="98" y="106" width="8" height="8" transform="rotate(0,102,110)"/><rect x="106" y="106" width="8" height="8" transform="rotate(0,110,110)"/><rect x="114" y="106" width="8" height="8" transform="rotate(0,118,110)"/><rect x="122" y="106" width="8" height="8" transform="rotate(0,126,110)"/><rect x="130" y="106" width="8" height="8" transform="rotate(0,134,110)"/><rect x="138" y="106" width="8" height="8" transform="rotate(0,142,110)"/><rect x="162" y="106" width="8" height="8" transform="rotate(0,166,110)"/><rect x="178" y="106" width="8" height="8" transform="rotate(0,182,110)"/><rect x="226" y="106" width="8" height="8" transform="rotate(0,230,110)"/><rect x="242" y="106" width="8" height="8" transform="rotate(0,246,110)"/><rect x="250" y="106" width="8" height="8" transform="rotate(0,254,110)"/><rect x="42" y="114" width="8" height="8" transform="rotate(0,46,118)"/><rect x="66" y="114" width="8" height="8" transform="rotate(0,70,118)"/><rect x="74" y="114" width="8" height="8" transform="rotate(0,78,118)"/><rect x="82" y="114" width="8" height="8" transform="rotate(0,86,118)"/><rect x="122" y="114" width="8" height="8" transform="rotate(0,126,118)"/><rect x="130" y="114" width="8" height="8" transform="rotate(0,134,118)"/><rect x="162" y="114" width="8" height="8" transform="rotate(0,166,118)"/><rect x="178" y="114" width="8" height="8" transform="rotate(0,182,118)"/><rect x="194" y="114" width="8" height="8" transform="rotate(0,198,118)"/><rect x="202" y="114" width="8" height="8" transform="rotate(0,206,118)"/><rect x="210" y="114" width="8" height="8" transform="rotate(0,214,118)"/><rect x="234" y="114" width="8" height="8" transform="rotate(0,238,118)"/><rect x="50" y="122" width="8" height="8" transform="rotate(0,54,126)"/><rect x="58" y="122" width="8" height="8" transform="rotate(0,62,126)"/><rect x="74" y="122" width="8" height="8" transform="rotate(0,78,126)"/><rect x="98" y="122" width="8" height="8" transform="rotate(0,102,126)"/><rect x="114" y="122" width="8" height="8" transform="rotate(0,118,126)"/><rect x="162" y="122" width="8" height="8" transform="rotate(0,166,126)"/><rect x="170" y="122" width="8" height="8" transform="rotate(0,174,126)"/><rect x="234" y="122" width="8" height="8" transform="rotate(0,238,126)"/><rect x="258" y="122" width="8" height="8" transform="rotate(0,262,126)"/><rect x="34" y="130" width="8" height="8" transform="rotate(0,38,134)"/><rect x="42" y="130" width="8" height="8" transform="rotate(0,46,134)"/><rect x="50" y="130" width="8" height="8" transform="rotate(0,54,134)"/><rect x="66" y="130" width="8" height="8" transform="rotate(0,70,134)"/><rect x="74" y="130" width="8" height="8" transform="rotate(0,78,134)"/><rect x="82" y="130" width="8" height="8" transform="rotate(0,86,134)"/><rect x="90" y="130" width="8" height="8" transform="rotate(0,94,134)"/><rect x="106" y="130" width="8" height="8" transform="rotate(0,110,134)"/><rect x="114" y="130" width="8" height="8" transform="rotate(0,118,134)"/><rect x="122" y="130" width="8" height="8" transform="rotate(0,126,134)"/><rect x="130" y="130" width="8" height="8" transform="rotate(0,134,134)"/><rect x="202" y="130" width="8" height="8" transform="rotate(0,206,134)"/><rect x="210" y="130" width="8" height="8" transform="rotate(0,214,134)"/><rect x="234" y="130" width="8" height="8" transform="rotate(0,238,134)"/><rect x="250" y="130" width="8" height="8" transform="rotate(0,254,134)"/><rect x="42" y="138" width="8" height="8" transform="rotate(0,46,142)"/><rect x="58" y="138" width="8" height="8" transform="rotate(0,62,142)"/><rect x="66" y="138" width="8" height="8" transform="rotate(0,70,142)"/><rect x="74" y="138" width="8" height="8" transform="rotate(0,78,142)"/><rect x="90" y="138" width="8" height="8" transform="rotate(0,94,142)"/><rect x="114" y="138" width="8" height="8" transform="rotate(0,118,142)"/><rect x="146" y="138" width="8" height="8" transform="rotate(0,150,142)"/><rect x="154" y="138" width="8" height="8" transform="rotate(0,158,142)"/><rect x="210" y="138" width="8" height="8" transform="rotate(0,214,142)"/><rect x="226" y="138" width="8" height="8" transform="rotate(0,230,142)"/><rect x="242" y="138" width="8" height="8" transform="rotate(0,246,142)"/><rect x="258" y="138" width="8" height="8" transform="rotate(0,262,142)"/><rect x="34" y="146" width="8" height="8" transform="rotate(0,38,150)"/><rect x="58" y="146" width="8" height="8" transform="rotate(0,62,150)"/><rect x="66" y="146" width="8" height="8" transform="rotate(0,70,150)"/><rect x="74" y="146" width="8" height="8" transform="rotate(0,78,150)"/><rect x="82" y="146" width="8" height="8" transform="rotate(0,86,150)"/><rect x="98" y="146" width="8" height="8" transform="rotate(0,102,150)"/><rect x="122" y="146" width="8" height="8" transform="rotate(0,126,150)"/><rect x="154" y="146" width="8" height="8" transform="rotate(0,158,150)"/><rect x="170" y="146" width="8" height="8" transform="rotate(0,174,150)"/><rect x="178" y="146" width="8" height="8" transform="rotate(0,182,150)"/><rect x="186" y="146" width="8" height="8" transform="rotate(0,190,150)"/><rect x="194" y="146" width="8" height="8" transform="rotate(0,198,150)"/><rect x="218" y="146" width="8" height="8" transform="rotate(0,222,150)"/><rect x="234" y="146" width="8" height="8" transform="rotate(0,238,150)"/><rect x="258" y="146" width="8" height="8" transform="rotate(0,262,150)"/><rect x="34" y="154" width="8" height="8" transform="rotate(0,38,158)"/><rect x="42" y="154" width="8" height="8" transform="rotate(0,46,158)"/><rect x="66" y="154" width="8" height="8" transform="rotate(0,70,158)"/><rect x="106" y="154" width="8" height="8" transform="rotate(0,110,158)"/><rect x="138" y="154" width="8" height="8" transform="rotate(0,142,158)"/><rect x="146" y="154" width="8" height="8" transform="rotate(0,150,158)"/><rect x="178" y="154" width="8" height="8" transform="rotate(0,182,158)"/><rect x="194" y="154" width="8" height="8" transform="rotate(0,198,158)"/><rect x="202" y="154" width="8" height="8" transform="rotate(0,206,158)"/><rect x="226" y="154" width="8" height="8" transform="rotate(0,230,158)"/><rect x="234" y="154" width="8" height="8" transform="rotate(0,238,158)"/><rect x="242" y="154" width="8" height="8" transform="rotate(0,246,158)"/><rect x="34" y="162" width="8" height="8" transform="rotate(0,38,166)"/><rect x="50" y="162" width="8" height="8" transform="rotate(0,54,166)"/><rect x="66" y="162" width="8" height="8" transform="rotate(0,70,166)"/><rect x="82" y="162" width="8" height="8" transform="rotate(0,86,166)"/><rect x="90" y="162" width="8" height="8" transform="rotate(0,94,166)"/><rect x="106" y="162" width="8" height="8" transform="rotate(0,110,166)"/><rect x="114" y="162" width="8" height="8" transform="rotate(0,118,166)"/><rect x="122" y="162" width="8" height="8" transform="rotate(0,126,166)"/><rect x="130" y="162" width="8" height="8" transform="rotate(0,134,166)"/><rect x="138" y="162" width="8" height="8" transform="rotate(0,142,166)"/><rect x="146" y="162" width="8" height="8" transform="rotate(0,150,166)"/><rect x="170" y="162" width="8" height="8" transform="rotate(0,174,166)"/><rect x="178" y="162" width="8" height="8" transform="rotate(0,182,166)"/><rect x="202" y="162" width="8" height="8" transform="rotate(0,206,166)"/><rect x="218" y="162" width="8" height="8" transform="rotate(0,222,166)"/><rect x="234" y="162" width="8" height="8" transform="rotate(0,238,166)"/><rect x="258" y="162" width="8" height="8" transform="rotate(0,262,166)"/><rect x="34" y="170" width="8" height="8" transform="rotate(0,38,174)"/><rect x="50" y="170" width="8" height="8" transform="rotate(0,54,174)"/><rect x="58" y="170" width="8" height="8" transform="rotate(0,62,174)"/><rect x="90" y="170" width="8" height="8" transform="rotate(0,94,174)"/><rect x="98" y="170" width="8" height="8" transform="rotate(0,102,174)"/><rect x="130" y="170" width="8" height="8" transform="rotate(0,134,174)"/><rect x="146" y="170" width="8" height="8" transform="rotate(0,150,174)"/><rect x="170" y="170" width="8" height="8" transform="rotate(0,174,174)"/><rect x="178" y="170" width="8" height="8" transform="rotate(0,182,174)"/><rect x="186" y="170" width="8" height="8" transform="rotate(0,190,174)"/><rect x="202" y="170" width="8" height="8" transform="rotate(0,206,174)"/><rect x="226" y="170" width="8" height="8" transform="rotate(0,230,174)"/><rect x="234" y="170" width="8" height="8" transform="rotate(0,238,174)"/><rect x="242" y="170" width="8" height="8" transform="rotate(0,246,174)"/><rect x="34" y="178" width="8" height="8" transform="rotate(0,38,182)"/><rect x="42" y="178" width="8" height="8" transform="rotate(0,46,182)"/><rect x="58" y="178" width="8" height="8" transform="rotate(0,62,182)"/><rect x="66" y="178" width="8" height="8" transform="rotate(0,70,182)"/><rect x="74" y="178" width="8" height="8" transform="rotate(0,78,182)"/><rect x="82" y="178" width="8" height="8" transform="rotate(0,86,182)"/><rect x="90" y="178" width="8" height="8" transform="rotate(0,94,182)"/><rect x="98" y="178" width="8" height="8" transform="rotate(0,102,182)"/><rect x="130" y="178" width="8" height="8" transform="rotate(0,134,182)"/><rect x="162" y="178" width="8" height="8" transform="rotate(0,166,182)"/><rect x="170" y="178" width="8" height="8" transform="rotate(0,174,182)"/><rect x="186" y="178" width="8" height="8" transform="rotate(0,190,182)"/><rect x="258" y="178" width="8" height="8" transform="rotate(0,262,182)"/><rect x="34" y="186" width="8" height="8" transform="rotate(0,38,190)"/><rect x="42" y="186" width="8" height="8" transform="rotate(0,46,190)"/><rect x="66" y="186" width="8" height="8" transform="rotate(0,70,190)"/><rect x="74" y="186" width="8" height="8" transform="rotate(0,78,190)"/><rect x="106" y="186" width="8" height="8" transform="rotate(0,110,190)"/><rect x="114" y="186" width="8" height="8" transform="rotate(0,118,190)"/><rect x="122" y="186" width="8" height="8" transform="rotate(0,126,190)"/><rect x="154" y="186" width="8" height="8" transform="rotate(0,158,190)"/><rect x="162" y="186" width="8" height="8" transform="rotate(0,166,190)"/><rect x="178" y="186" width="8" height="8" transform="rotate(0,182,190)"/><rect x="186" y="186" width="8" height="8" transform="rotate(0,190,190)"/><rect x="202" y="186" width="8" height="8" transform="rotate(0,206,190)"/><rect x="210" y="186" width="8" height="8" transform="rotate(0,214,190)"/><rect x="218" y="186" width="8" height="8" transform="rotate(0,222,190)"/><rect x="242" y="186" width="8" height="8" transform="rotate(0,246,190)"/><rect x="250" y="186" width="8" height="8" transform="rotate(0,254,190)"/><rect x="34" y="194" width="8" height="8" transform="rotate(0,38,198)"/><rect x="42" y="194" width="8" height="8" transform="rotate(0,46,198)"/><rect x="50" y="194" width="8" height="8" transform="rotate(0,54,198)"/><rect x="58" y="194" width="8" height="8" transform="rotate(0,62,198)"/><rect x="82" y="194" width="8" height="8" transform="rotate(0,86,198)"/><rect x="98" y="194" width="8" height="8" transform="rotate(0,102,198)"/><rect x="162" y="194" width="8" height="8" transform="rotate(0,166,198)"/><rect x="170" y="194" width="8" height="8" transform="rotate(0,174,198)"/><rect x="186" y="194" width="8" height="8" transform="rotate(0,190,198)"/><rect x="194" y="194" width="8" height="8" transform="rotate(0,198,198)"/><rect x="202" y="194" width="8" height="8" transform="rotate(0,206,198)"/><rect x="210" y="194" width="8" height="8" transform="rotate(0,214,198)"/><rect x="218" y="194" width="8" height="8" transform="rotate(0,222,198)"/><rect x="226" y="194" width="8" height="8" transform="rotate(0,230,198)"/><rect x="234" y="194" width="8" height="8" transform="rotate(0,238,198)"/><rect x="242" y="194" width="8" height="8" transform="rotate(0,246,198)"/><rect x="98" y="202" width="8" height="8" transform="rotate(0,102,206)"/><rect x="106" y="202" width="8" height="8" transform="rotate(0,110,206)"/><rect x="130" y="202" width="8" height="8" transform="rotate(0,134,206)"/><rect x="146" y="202" width="8" height="8" transform="rotate(0,150,206)"/><rect x="154" y="202" width="8" height="8" transform="rotate(0,158,206)"/><rect x="170" y="202" width="8" height="8" transform="rotate(0,174,206)"/><rect x="178" y="202" width="8" height="8" transform="rotate(0,182,206)"/><rect x="186" y="202" width="8" height="8" transform="rotate(0,190,206)"/><rect x="194" y="202" width="8" height="8" transform="rotate(0,198,206)"/><rect x="226" y="202" width="8" height="8" transform="rotate(0,230,206)"/><rect x="234" y="202" width="8" height="8" transform="rotate(0,238,206)"/><rect x="242" y="202" width="8" height="8" transform="rotate(0,246,206)"/><rect x="106" y="210" width="8" height="8" transform="rotate(0,110,214)"/><rect x="114" y="210" width="8" height="8" transform="rotate(0,118,214)"/><rect x="122" y="210" width="8" height="8" transform="rotate(0,126,214)"/><rect x="130" y="210" width="8" height="8" transform="rotate(0,134,214)"/><rect x="138" y="210" width="8" height="8" transform="rotate(0,142,214)"/><rect x="154" y="210" width="8" height="8" transform="rotate(0,158,214)"/><rect x="162" y="210" width="8" height="8" transform="rotate(0,166,214)"/><rect x="186" y="210" width="8" height="8" transform="rotate(0,190,214)"/><rect x="194" y="210" width="8" height="8" transform="rotate(0,198,214)"/><rect x="210" y="210" width="8" height="8" transform="rotate(0,214,214)"/><rect x="226" y="210" width="8" height="8" transform="rotate(0,230,214)"/><rect x="242" y="210" width="8" height="8" transform="rotate(0,246,214)"/><rect x="250" y="210" width="8" height="8" transform="rotate(0,254,214)"/><rect x="98" y="218" width="8" height="8" transform="rotate(0,102,222)"/><rect x="114" y="218" width="8" height="8" transform="rotate(0,118,222)"/><rect x="122" y="218" width="8" height="8" transform="rotate(0,126,222)"/><rect x="146" y="218" width="8" height="8" transform="rotate(0,150,222)"/><rect x="154" y="218" width="8" height="8" transform="rotate(0,158,222)"/><rect x="162" y="218" width="8" height="8" transform="rotate(0,166,222)"/><rect x="178" y="218" width="8" height="8" transform="rotate(0,182,222)"/><rect x="186" y="218" width="8" height="8" transform="rotate(0,190,222)"/><rect x="194" y="218" width="8" height="8" transform="rotate(0,198,222)"/><rect x="226" y="218" width="8" height="8" transform="rotate(0,230,222)"/><rect x="234" y="218" width="8" height="8" transform="rotate(0,238,222)"/><rect x="250" y="218" width="8" height="8" transform="rotate(0,254,222)"/><rect x="98" y="226" width="8" height="8" transform="rotate(0,102,230)"/><rect x="106" y="226" width="8" height="8" transform="rotate(0,110,230)"/><rect x="114" y="226" width="8" height="8" transform="rotate(0,118,230)"/><rect x="130" y="226" width="8" height="8" transform="rotate(0,134,230)"/><rect x="138" y="226" width="8" height="8" transform="rotate(0,142,230)"/><rect x="154" y="226" width="8" height="8" transform="rotate(0,158,230)"/><rect x="170" y="226" width="8" height="8" transform="rotate(0,174,230)"/><rect x="186" y="226" width="8" height="8" transform="rotate(0,190,230)"/><rect x="194" y="226" width="8" height="8" transform="rotate(0,198,230)"/><rect x="202" y="226" width="8" height="8" transform="rotate(0,206,230)"/><rect x="210" y="226" width="8" height="8" transform="rotate(0,214,230)"/><rect x="218" y="226" width="8" height="8" transform="rotate(0,222,230)"/><rect x="226" y="226" width="8" height="8" transform="rotate(0,230,230)"/><rect x="250" y="226" width="8" height="8" transform="rotate(0,254,230)"/><rect x="98" y="234" width="8" height="8" transform="rotate(0,102,238)"/><rect x="114" y="234" width="8" height="8" transform="rotate(0,118,238)"/><rect x="122" y="234" width="8" height="8" transform="rotate(0,126,238)"/><rect x="138" y="234" width="8" height="8" transform="rotate(0,142,238)"/><rect x="146" y="234" width="8" height="8" transform="rotate(0,150,238)"/><rect x="170" y="234" width="8" height="8" transform="rotate(0,174,238)"/><rect x="178" y="234" width="8" height="8" transform="rotate(0,182,238)"/><rect x="218" y="234" width="8" height="8" transform="rotate(0,222,238)"/><rect x="250" y="234" width="8" height="8" transform="rotate(0,254,238)"/><rect x="106" y="242" width="8" height="8" transform="rotate(0,110,246)"/><rect x="114" y="242" width="8" height="8" transform="rotate(0,118,246)"/><rect x="122" y="242" width="8" height="8" transform="rotate(0,126,246)"/><rect x="138" y="242" width="8" height="8" transform="rotate(0,142,246)"/><rect x="146" y="242" width="8" height="8" transform="rotate(0,150,246)"/><rect x="154" y="242" width="8" height="8" transform="rotate(0,158,246)"/><rect x="170" y="242" width="8" height="8" transform="rotate(0,174,246)"/><rect x="194" y="242" width="8" height="8" transform="rotate(0,198,246)"/><rect x="202" y="242" width="8" height="8" transform="rotate(0,206,246)"/><rect x="218" y="242" width="8" height="8" transform="rotate(0,222,246)"/><rect x="226" y="242" width="8" height="8" transform="rotate(0,230,246)"/><rect x="250" y="242" width="8" height="8" transform="rotate(0,254,246)"/><rect x="258" y="242" width="8" height="8" transform="rotate(0,262,246)"/><rect x="98" y="250" width="8" height="8" transform="rotate(0,102,254)"/><rect x="114" y="250" width="8" height="8" transform="rotate(0,118,254)"/><rect x="138" y="250" width="8" height="8" transform="rotate(0,142,254)"/><rect x="146" y="250" width="8" height="8" transform="rotate(0,150,254)"/><rect x="162" y="250" width="8" height="8" transform="rotate(0,166,254)"/><rect x="186" y="250" width="8" height="8" transform="rotate(0,190,254)"/><rect x="194" y="250" width="8" height="8" transform="rotate(0,198,254)"/><rect x="202" y="250" width="8" height="8" transform="rotate(0,206,254)"/><rect x="210" y="250" width="8" height="8" transform="rotate(0,214,254)"/><rect x="226" y="250" width="8" height="8" transform="rotate(0,230,254)"/><rect x="242" y="250" width="8" height="8" transform="rotate(0,246,254)"/><rect x="258" y="250" width="8" height="8" transform="rotate(0,262,254)"/><rect x="122" y="258" width="8" height="8" transform="rotate(0,126,262)"/><rect x="138" y="258" width="8" height="8" transform="rotate(0,142,262)"/><rect x="146" y="258" width="8" height="8" transform="rotate(0,150,262)"/><rect x="154" y="258" width="8" height="8" transform="rotate(0,158,262)"/><rect x="186" y="258" width="8" height="8" transform="rotate(0,190,262)"/><rect x="194" y="258" width="8" height="8" transform="rotate(0,198,262)"/><rect x="218" y="258" width="8" height="8" transform="rotate(0,222,262)"/><rect x="226" y="258" width="8" height="8" transform="rotate(0,230,262)"/></clipPath><clipPath id="clip-path-corners-square-color-0-0-10"><path clip-rule="evenodd" d="M 34 34v 56h 56v -56zM 42 42h 40v 40h -40z" transform="rotate(0,62,62)"/></clipPath><clipPath id="clip-path-corners-dot-color-0-0-10"><rect x="50" y="50" width="24" height="24" transform="rotate(0,62,62)"/></clipPath><clipPath id="clip-path-corners-square-color-1-0-10"><path clip-rule="evenodd" d="M 210 34v 56h 56v -56zM 218 42h 40v 40h -40z" transform="rotate(90,238,62)"/></clipPath><clipPath id="clip-path-corners-dot-color-1-0-10"><rect x="226" y="50" width="24" height="24" transform="rotate(90,238,62)"/></clipPath><clipPath id="clip-path-corners-square-color-0-1-10"><path clip-rule="evenodd" d="M 34 210v 56h 56v -56zM 42 218h 40v 40h -40z" transform="rotate(-90,62,238)"/></clipPath><clipPath id="clip-path-corners-dot-color-0-1-10"><rect x="50" y="226" width="24" height="24" transform="rotate(-90,62,238)"/></clipPath></defs><rect x="0" y="0" height="300" width="300" clip-path="url('#clip-path-background-color-10')" fill="#ffffff"/><rect x="0" y="0" height="300" width="300" clip-path="url('#clip-path-dot-color-10')" fill="#000000"/><rect x="34" y="34" height="56" width="56" clip-path="url('#clip-path-corners-square-color-0-0-10')" fill="#000000"/><rect x="50" y="50" height="24" width="24" clip-path="url('#clip-path-corners-dot-color-0-0-10')" fill="#000000"/><rect x="210" y="34" height="56" width="56" clip-path="url('#clip-path-corners-square-color-1-0-10')" fill="#000000"/><rect x="226" y="50" height="24" width="24" clip-path="url('#clip-path-corners-dot-color-1-0-10')" fill="#000000"/><rect x="34" y="210" height="56" width="56" clip-path="url('#clip-path-corners-square-color-0-1-10')" fill="#000000"/><rect x="50" y="226" height="24" width="24" clip-path="url('#clip-path-corners-dot-color-0-1-10')" fill="#000000"/></svg>